<mxfile host="app.diagrams.net" agent="Mozilla/5.0 (Windows NT 10.0; Win64; x64) AppleWebKit/537.36 (KHTML, like Gecko) Chrome/130.0.0.0 Safari/537.36" version="24.8.2">
  <diagram name="Page-1" id="ZYS5sDtZl-xBv3bco75O">
    <mxGraphModel dx="1167" dy="639" grid="1" gridSize="10" guides="1" tooltips="1" connect="1" arrows="1" fold="1" page="1" pageScale="1" pageWidth="850" pageHeight="1100" math="0" shadow="0">
      <root>
        <mxCell id="0" />
        <mxCell id="1" parent="0" />
        <mxCell id="qFW6AGBLkck7mrF04sa7-2" value="" style="rounded=0;whiteSpace=wrap;html=1;" parent="1" vertex="1">
          <mxGeometry x="140" y="20" width="630" height="590" as="geometry" />
        </mxCell>
        <mxCell id="CZrs-vRI9lIERa0eWckA-3" value="Retrieve data" style="ellipse;whiteSpace=wrap;html=1;" parent="1" vertex="1">
          <mxGeometry x="280" y="240" width="140" height="60" as="geometry" />
        </mxCell>
        <mxCell id="CZrs-vRI9lIERa0eWckA-4" value="Share data" style="ellipse;whiteSpace=wrap;html=1;" parent="1" vertex="1">
          <mxGeometry x="280" y="160" width="140" height="60" as="geometry" />
        </mxCell>
        <mxCell id="CZrs-vRI9lIERa0eWckA-5" value="Send Complaints" style="ellipse;whiteSpace=wrap;html=1;" parent="1" vertex="1">
          <mxGeometry x="285" y="320" width="140" height="60" as="geometry" />
        </mxCell>
        <mxCell id="CZrs-vRI9lIERa0eWckA-6" value="Authentication" style="ellipse;whiteSpace=wrap;html=1;" parent="1" vertex="1">
          <mxGeometry x="280" y="80" width="140" height="60" as="geometry" />
        </mxCell>
        <mxCell id="CZrs-vRI9lIERa0eWckA-8" value="Change password" style="ellipse;whiteSpace=wrap;html=1;" parent="1" vertex="1">
          <mxGeometry x="280" y="480" width="140" height="60" as="geometry" />
        </mxCell>
        <mxCell id="CZrs-vRI9lIERa0eWckA-9" value="Update profile" style="ellipse;whiteSpace=wrap;html=1;" parent="1" vertex="1">
          <mxGeometry x="280" y="400" width="140" height="60" as="geometry" />
        </mxCell>
        <mxCell id="CZrs-vRI9lIERa0eWckA-10" value="View data sharing logs" style="ellipse;whiteSpace=wrap;html=1;" parent="1" vertex="1">
          <mxGeometry x="500" y="320" width="140" height="60" as="geometry" />
        </mxCell>
        <mxCell id="Rl2F3WcTKwhEVv5TaEGG-2" value="Handle user complaint" style="ellipse;whiteSpace=wrap;html=1;" parent="1" vertex="1">
          <mxGeometry x="500" y="240" width="140" height="60" as="geometry" />
        </mxCell>
        <object placeholders="1" c4Name="" c4Type="" c4Application="" label="" id="Rl2F3WcTKwhEVv5TaEGG-3">
          <mxCell style="rounded=1;fontSize=11;whiteSpace=wrap;html=1;dashed=1;arcSize=20;fillColor=none;strokeColor=#666666;fontColor=#333333;labelBackgroundColor=none;align=left;verticalAlign=bottom;labelBorderColor=none;spacingTop=0;spacing=10;dashPattern=8 4;metaEdit=1;rotatable=0;perimeter=rectanglePerimeter;noLabel=0;labelPadding=0;allowArrows=0;connectable=0;expand=0;recursiveResize=0;editable=1;pointerEvents=0;absoluteArcSize=1;points=[[0.25,0,0],[0.5,0,0],[0.75,0,0],[1,0.25,0],[1,0.5,0],[1,0.75,0],[0.75,1,0],[0.5,1,0],[0.25,1,0],[0,0.75,0],[0,0.5,0],[0,0.25,0]];" parent="1" vertex="1">
            <mxGeometry x="240" y="40" width="440" height="520" as="geometry" />
          </mxCell>
        </object>
        <mxCell id="Rl2F3WcTKwhEVv5TaEGG-4" value="&lt;b&gt;Secure data sharing platform&lt;/b&gt;" style="text;html=1;align=center;verticalAlign=middle;whiteSpace=wrap;rounded=0;" parent="1" vertex="1">
          <mxGeometry x="370" y="45" width="180" height="30" as="geometry" />
        </mxCell>
        <mxCell id="Rl2F3WcTKwhEVv5TaEGG-5" value="User" style="shape=umlActor;verticalLabelPosition=bottom;verticalAlign=top;html=1;outlineConnect=0;" parent="1" vertex="1">
          <mxGeometry x="170" y="270" width="30" height="60" as="geometry" />
        </mxCell>
        <mxCell id="Rl2F3WcTKwhEVv5TaEGG-6" value="Admin" style="shape=umlActor;verticalLabelPosition=bottom;verticalAlign=top;html=1;outlineConnect=0;" parent="1" vertex="1">
          <mxGeometry x="720" y="270" width="30" height="60" as="geometry" />
        </mxCell>
        <mxCell id="Rl2F3WcTKwhEVv5TaEGG-8" value="" style="endArrow=open;endFill=1;endSize=12;html=1;rounded=0;entryX=0;entryY=0.5;entryDx=0;entryDy=0;" parent="1" target="CZrs-vRI9lIERa0eWckA-6" edge="1">
          <mxGeometry width="160" relative="1" as="geometry">
            <mxPoint x="210" y="300" as="sourcePoint" />
            <mxPoint x="420" y="280" as="targetPoint" />
          </mxGeometry>
        </mxCell>
        <mxCell id="Rl2F3WcTKwhEVv5TaEGG-9" value="" style="endArrow=open;endFill=1;endSize=12;html=1;rounded=0;entryX=0;entryY=0.5;entryDx=0;entryDy=0;" parent="1" target="CZrs-vRI9lIERa0eWckA-5" edge="1">
          <mxGeometry width="160" relative="1" as="geometry">
            <mxPoint x="210" y="300" as="sourcePoint" />
            <mxPoint x="290" y="120" as="targetPoint" />
          </mxGeometry>
        </mxCell>
        <mxCell id="Rl2F3WcTKwhEVv5TaEGG-10" value="" style="endArrow=open;endFill=1;endSize=12;html=1;rounded=0;entryX=0;entryY=0.5;entryDx=0;entryDy=0;" parent="1" target="CZrs-vRI9lIERa0eWckA-3" edge="1">
          <mxGeometry width="160" relative="1" as="geometry">
            <mxPoint x="210" y="300" as="sourcePoint" />
            <mxPoint x="290" y="200" as="targetPoint" />
          </mxGeometry>
        </mxCell>
        <mxCell id="Rl2F3WcTKwhEVv5TaEGG-11" value="" style="endArrow=open;endFill=1;endSize=12;html=1;rounded=0;entryX=0;entryY=0.5;entryDx=0;entryDy=0;" parent="1" target="CZrs-vRI9lIERa0eWckA-4" edge="1">
          <mxGeometry width="160" relative="1" as="geometry">
            <mxPoint x="210" y="300" as="sourcePoint" />
            <mxPoint x="290" y="280" as="targetPoint" />
          </mxGeometry>
        </mxCell>
        <mxCell id="Rl2F3WcTKwhEVv5TaEGG-12" value="" style="endArrow=open;endFill=1;endSize=12;html=1;rounded=0;entryX=0;entryY=0.5;entryDx=0;entryDy=0;" parent="1" target="CZrs-vRI9lIERa0eWckA-9" edge="1">
          <mxGeometry width="160" relative="1" as="geometry">
            <mxPoint x="210" y="300" as="sourcePoint" />
            <mxPoint x="290" y="360" as="targetPoint" />
          </mxGeometry>
        </mxCell>
        <mxCell id="Rl2F3WcTKwhEVv5TaEGG-13" value="" style="endArrow=open;endFill=1;endSize=12;html=1;rounded=0;entryX=0;entryY=0.5;entryDx=0;entryDy=0;" parent="1" target="CZrs-vRI9lIERa0eWckA-8" edge="1">
          <mxGeometry width="160" relative="1" as="geometry">
            <mxPoint x="210" y="300" as="sourcePoint" />
            <mxPoint x="290" y="440" as="targetPoint" />
          </mxGeometry>
        </mxCell>
        <mxCell id="Rl2F3WcTKwhEVv5TaEGG-14" value="" style="endArrow=open;endFill=1;endSize=12;html=1;rounded=0;entryX=1;entryY=0.5;entryDx=0;entryDy=0;" parent="1" target="Rl2F3WcTKwhEVv5TaEGG-2" edge="1">
          <mxGeometry width="160" relative="1" as="geometry">
            <mxPoint x="710" y="300" as="sourcePoint" />
            <mxPoint x="700" y="290" as="targetPoint" />
          </mxGeometry>
        </mxCell>
        <mxCell id="Rl2F3WcTKwhEVv5TaEGG-15" value="" style="endArrow=open;endFill=1;endSize=12;html=1;rounded=0;entryX=1;entryY=0.5;entryDx=0;entryDy=0;" parent="1" target="CZrs-vRI9lIERa0eWckA-10" edge="1">
          <mxGeometry width="160" relative="1" as="geometry">
            <mxPoint x="710" y="300" as="sourcePoint" />
            <mxPoint x="650" y="280" as="targetPoint" />
          </mxGeometry>
        </mxCell>
        <mxCell id="8MjbJDINjlQ4juGFdZJt-1" value="" style="endArrow=classic;html=1;rounded=0;exitX=1;exitY=0.5;exitDx=0;exitDy=0;entryX=0;entryY=0.5;entryDx=0;entryDy=0;" edge="1" parent="1" source="CZrs-vRI9lIERa0eWckA-5" target="Rl2F3WcTKwhEVv5TaEGG-2">
          <mxGeometry width="50" height="50" relative="1" as="geometry">
            <mxPoint x="425" y="350" as="sourcePoint" />
            <mxPoint x="475" y="300" as="targetPoint" />
          </mxGeometry>
        </mxCell>
      </root>
    </mxGraphModel>
  </diagram>
</mxfile>
